<svg id="S_FullScreen_18_N" xmlns="http://www.w3.org/2000/svg" width="18" height="18" viewBox="0 0 18 18">
  <defs>
    <style>
      .cls-1, .cls-2 {
        fill: #FFFFFF;
      }

      .cls-1 {
        fill-rule: evenodd;
      }

      .cls-3 {
        fill: #ff13dc;
        opacity: 0;
      }
    </style>
  </defs>
  <title>S_FullScreen_18_N</title>
  <path class="cls-1" d="M16,12.25V15H13.25a.25.25,0,0,0-.25.25v.5a.25.25,0,0,0,.25.25H17V12.25a.25.25,0,0,0-.25-.25h-.5A.25.25,0,0,0,16,12.25Z" transform="translate(0 0)"/>
  <path class="cls-1" d="M2,15V12.25A.25.25,0,0,0,1.75,12h-.5a.25.25,0,0,0-.25.25V16H4.75A.25.25,0,0,0,5,15.75v-.5A.25.25,0,0,0,4.75,15Z" transform="translate(0 0)"/>
  <path class="cls-1" d="M13,2.25v.5a.25.25,0,0,0,.25.25H16V5.75a.25.25,0,0,0,.25.25h.5A.25.25,0,0,0,17,5.75V2H13.25A.25.25,0,0,0,13,2.25Z" transform="translate(0 0)"/>
  <path class="cls-1" d="M2,3H4.75A.25.25,0,0,0,5,2.75v-.5A.25.25,0,0,0,4.75,2H1V5.75A.25.25,0,0,0,1.25,6h.5A.25.25,0,0,0,2,5.75Z" transform="translate(0 0)"/>
  <rect class="cls-2" x="4" y="5" width="10" height="8" rx="0.5" ry="0.5"/>
  <rect id="ToDelete" class="cls-3" width="18" height="18"/>
</svg>
