<svg id="S_FullScreenExit_18_N" xmlns="http://www.w3.org/2000/svg" width="18" height="18" viewBox="0 0 18 18">
  <defs>
    <style>
      .cls-1, .cls-2 {
        fill: #FFFFFF;
      }

      .cls-1 {
        fill-rule: evenodd;
      }

      .cls-3 {
        fill: #ff13dc;
        opacity: 0;
      }
    </style>
  </defs>
  <title>S_FullScreenExit_18_N</title>
  <path class="cls-1" d="M3,1.25V4H.25A.25.25,0,0,0,0,4.25v.5A.25.25,0,0,0,.25,5H4V1.25A.25.25,0,0,0,3.75,1h-.5A.25.25,0,0,0,3,1.25Z" transform="translate(0 0)"/>
  <path class="cls-1" d="M15,4V1.25A.25.25,0,0,0,14.75,1h-.5a.25.25,0,0,0-.25.25V5h3.75A.25.25,0,0,0,18,4.75v-.5A.25.25,0,0,0,17.75,4Z" transform="translate(0 0)"/>
  <path class="cls-1" d="M0,13.25v.5A.25.25,0,0,0,.25,14H3v2.75a.25.25,0,0,0,.25.25h.5A.25.25,0,0,0,4,16.75V13H.25A.25.25,0,0,0,0,13.25Z" transform="translate(0 0)"/>
  <path class="cls-1" d="M15,14h2.75a.25.25,0,0,0,.25-.25v-.5a.25.25,0,0,0-.25-.25H14v3.75a.25.25,0,0,0,.25.25h.5a.25.25,0,0,0,.25-.25Z" transform="translate(0 0)"/>
  <rect class="cls-2" x="4" y="5" width="10" height="8" rx="0.5" ry="0.5"/>
  <rect id="ToDelete" class="cls-3" width="18" height="18"/>
</svg>
