<svg id="S_Replay_24_N" xmlns="http://www.w3.org/2000/svg" width="24" height="24" viewBox="0 0 24 24">
  <defs>
    <style>
      .cls-1 {
        fill: #fff;
      }

      .cls-2 {
        fill: #ff13dc;
        opacity: 0;
      }
    </style>
  </defs>
  <title>S_Replay_24_N</title>
  <path class="cls-1" d="M6.651,3.539A10,10,0,0,1,18.6,4.507l2.007-1.195A.261.261,0,0,1,21,3.551V8.711L15.211,7.184a.25.25,0,0,1-.069-.457l1.731-1.18a8.1,8.1,0,1,0,2.909,8.631.246.246,0,0,1,.3-.176l1.364.338a.253.253,0,0,1,.184.31A10,10,0,0,1,3.152,16.691,10.07,10.07,0,0,1,6.651,3.539Z"/>
  <path class="cls-1" d="M16.413,12.345l-6.018,3.533A.8.8,0,0,1,9.97,16H9.4a.4.4,0,0,1-.4-.4V8.4A.4.4,0,0,1,9.4,8h.57a.8.8,0,0,1,.424.121l6.018,3.534A.4.4,0,0,1,16.413,12.345Z"/>
  <rect id="ToDelete" class="cls-2" width="24" height="24"/>
</svg>
