<svg id="S_Settings_18_N" xmlns="http://www.w3.org/2000/svg" width="18" height="18" viewBox="0 0 18 18">
  <defs>
    <style>
      .cls-1 {
        fill: #FFFFFF;
        fill-rule: evenodd;
      }

      .cls-2 {
        fill: #ff13dc;
        opacity: 0;
      }
    </style>
  </defs>
  <title>S_Settings_18_N</title>
  <path class="cls-1" d="M16.448,7.9H14.516A5.589,5.589,0,0,0,13.7,5.916L15.076,4.54a0.552,0.552,0,0,0,0-.78L14.24,2.924a0.552,0.552,0,0,0-.78,0L12.084,4.3a5.588,5.588,0,0,0-1.98-.816V1.552A0.552,0.552,0,0,0,9.552,1h-1.1a0.552,0.552,0,0,0-.552.552V3.483a5.588,5.588,0,0,0-1.98.816L4.541,2.924a0.552,0.552,0,0,0-.78,0L2.924,3.76a0.552,0.552,0,0,0,0,.78L4.3,5.916A5.589,5.589,0,0,0,3.484,7.9H1.552A0.552,0.552,0,0,0,1,8.448v1.1a0.552,0.552,0,0,0,.552.552H3.484A5.589,5.589,0,0,0,4.3,12.084L2.924,13.459a0.552,0.552,0,0,0,0,.78L3.76,15.076a0.552,0.552,0,0,0,.78,0L5.916,13.7a5.588,5.588,0,0,0,1.98.816v1.932A0.552,0.552,0,0,0,8.448,17h1.1a0.552,0.552,0,0,0,.552-0.552V14.516a5.588,5.588,0,0,0,1.98-.816l1.376,1.376a0.552,0.552,0,0,0,.78,0l0.836-.836a0.552,0.552,0,0,0,0-.78L13.7,12.084a5.589,5.589,0,0,0,.816-1.981h1.932A0.552,0.552,0,0,0,17,9.552v-1.1A0.552,0.552,0,0,0,16.448,7.9ZM9,11.207A2.207,2.207,0,1,1,11.207,9,2.207,2.207,0,0,1,9,11.207Z"/>
  <rect id="ToDelete" class="cls-2" width="18" height="18"/>
</svg>
