<svg id="S_VolumeThree_18_N" xmlns="http://www.w3.org/2000/svg" width="18" height="18" viewBox="0 0 18 18">
  <defs>
    <style>
      .cls-1 {
        fill: #FFFFFF;
        fill-rule: evenodd;
      }

      .cls-2 {
        fill: #ff13dc;
        opacity: 0;
      }
    </style>
  </defs>
  <title>S_VolumeThree_18_N</title>
  <path class="cls-1" d="M3.373,6.037H.727A.737.737,0,0,0,0,6.782v4.471A.737.737,0,0,0,.727,12H3.373a.714.714,0,0,1,.465.172L7.4,15.8a.363.363,0,0,0,.6-.286V2.5a.363.363,0,0,0-.6-.286L3.839,5.864A.718.718,0,0,1,3.373,6.037Z" transform="translate(0 0)"/>
  <path class="cls-1" d="M11.02,9a3.468,3.468,0,0,1-.7,2.1.491.491,0,0,0,.043.644l.008.008a.5.5,0,0,0,.743-.045A4.477,4.477,0,0,0,11.1,6.277a.5.5,0,0,0-.742-.043l-.008.008a.491.491,0,0,0-.042.646A3.472,3.472,0,0,1,11.02,9Z" transform="translate(0 0)"/>
  <path class="cls-1" d="M14.02,9a6.468,6.468,0,0,1-1.558,4.218.486.486,0,0,0,.032.658l.007.007a.5.5,0,0,0,.737-.034,7.49,7.49,0,0,0-.013-9.715.5.5,0,0,0-.734-.036l-.007.007a.489.489,0,0,0-.033.661A6.47,6.47,0,0,1,14.02,9Z" transform="translate(0 0)"/>
  <path class="cls-1" d="M17.02,9a9.46,9.46,0,0,1-2.412,6.321.5.5,0,0,0,.012.688l.007.007A.49.49,0,0,0,15.339,16a10.431,10.431,0,0,0,2.653-7,10.434,10.434,0,0,0-2.663-7.017.492.492,0,0,0-.712-.01l-.007.007a.5.5,0,0,0-.01.687A9.462,9.462,0,0,1,17.02,9Z" transform="translate(0 0)"/>
  <rect id="ToDelete" class="cls-2" width="18" height="18"/>
</svg>
