<svg id="S_VolumeMute_18_N" xmlns="http://www.w3.org/2000/svg" width="18" height="18" viewBox="0 0 18 18">
  <defs>
    <style>
      .cls-1 {
        fill: #FFFFFF;
        fill-rule: evenodd;
        transform:translateX(-1px);
      }

      .cls-2 {
        fill: #ff13dc;
        opacity: 0;
      }
    </style>
  </defs>
  <title>S_VolumeMute_18_N</title>
  <path class="cls-1" d="M12.5,9.05a4.45,4.45,0,1,0,4.45,4.45A4.45,4.45,0,0,0,12.5,9.05ZM9,13.5a3.467,3.467,0,0,1,.737-2.126l4.889,4.889A3.483,3.483,0,0,1,9,13.5Zm6.263,2.126-4.889-4.889a3.483,3.483,0,0,1,4.889,4.889Z" transform="translate(0 0)"/>
  <path class="cls-1" d="M6.35,13.55A6.14,6.14,0,0,1,9,8.5v-6a.363.363,0,0,0-.6-.286L4.839,5.864a.718.718,0,0,1-.467.172H1.728A.737.737,0,0,0,1,6.782v4.471A.737.737,0,0,0,1.728,12H4.373a.714.714,0,0,1,.465.172l1.521,1.548C6.357,13.662,6.35,13.607,6.35,13.55Z" transform="translate(0 0)"/>
  <rect id="ToDelete" class="cls-2" width="18" height="18"/>
</svg>
